<svg width="526" height="622" viewBox="0 0 526 622" fill="none" xmlns="http://www.w3.org/2000/svg">
<rect width="526" height="622" fill="#E5E5E5"/>
<rect width="526" height="622" fill="white"/>
<rect x="53.5" y="114.5" width="98" height="132" rx="9.5" stroke="black"/>
<path d="M102 228.273C95.1515 228.273 89.3182 226.409 84.5 222.682C79.6818 218.924 76 213.485 73.4545 206.364C70.9091 199.212 69.6364 190.576 69.6364 180.455C69.6364 170.394 70.9091 161.803 73.4545 154.682C76.0303 147.53 79.7273 142.076 84.5455 138.318C89.3939 134.53 95.2121 132.636 102 132.636C108.788 132.636 114.591 134.53 119.409 138.318C124.258 142.076 127.955 147.53 130.5 154.682C133.076 161.803 134.364 170.394 134.364 180.455C134.364 190.576 133.091 199.212 130.545 206.364C128 213.485 124.318 218.924 119.5 222.682C114.682 226.409 108.848 228.273 102 228.273ZM102 218.273C108.788 218.273 114.061 215 117.818 208.455C121.576 201.909 123.455 192.576 123.455 180.455C123.455 172.394 122.591 165.53 120.864 159.864C119.167 154.197 116.712 149.879 113.5 146.909C110.318 143.939 106.485 142.455 102 142.455C95.2727 142.455 90.0152 145.773 86.2273 152.409C82.4394 159.015 80.5455 168.364 80.5455 180.455C80.5455 188.515 81.3939 195.364 83.0909 201C84.7879 206.636 87.2273 210.924 90.4091 213.864C93.6212 216.803 97.4848 218.273 102 218.273Z" fill="black"/>
<rect x="376" y="115" width="97" height="131" rx="9" stroke="#22C55E" stroke-width="2"/>
<path d="M424 228.273C417.152 228.273 411.318 226.409 406.5 222.682C401.682 218.924 398 213.485 395.455 206.364C392.909 199.212 391.636 190.576 391.636 180.455C391.636 170.394 392.909 161.803 395.455 154.682C398.03 147.53 401.727 142.076 406.545 138.318C411.394 134.53 417.212 132.636 424 132.636C430.788 132.636 436.591 134.53 441.409 138.318C446.258 142.076 449.955 147.53 452.5 154.682C455.076 161.803 456.364 170.394 456.364 180.455C456.364 190.576 455.091 199.212 452.545 206.364C450 213.485 446.318 218.924 441.5 222.682C436.682 226.409 430.848 228.273 424 228.273ZM424 218.273C430.788 218.273 436.061 215 439.818 208.455C443.576 201.909 445.455 192.576 445.455 180.455C445.455 172.394 444.591 165.53 442.864 159.864C441.167 154.197 438.712 149.879 435.5 146.909C432.318 143.939 428.485 142.455 424 142.455C417.273 142.455 412.015 145.773 408.227 152.409C404.439 159.015 402.545 168.364 402.545 180.455C402.545 188.515 403.394 195.364 405.091 201C406.788 206.636 409.227 210.924 412.409 213.864C415.621 216.803 419.485 218.273 424 218.273Z" fill="black"/>
<path d="M349.061 181.061C349.646 180.475 349.646 179.525 349.061 178.939L339.515 169.393C338.929 168.808 337.979 168.808 337.393 169.393C336.808 169.979 336.808 170.929 337.393 171.515L345.879 180L337.393 188.485C336.808 189.071 336.808 190.021 337.393 190.607C337.979 191.192 338.929 191.192 339.515 190.607L349.061 181.061ZM178 181.5H348V178.5H178V181.5Z" fill="black"/>
<rect x="53.5" y="377.5" width="98" height="132" rx="9.5" stroke="black"/>
<path d="M114.614 396.909V490H103.341V408.727H102.795L80.0682 423.818V412.364L103.341 396.909H114.614Z" fill="black"/>
<rect x="375" y="377" width="99" height="133" rx="10" stroke="#EF4444" stroke-width="2"/>
<g filter="url(#filter0_df_0_1)">
<path d="M394.528 480.279L433.12 395.564L443.378 400.237L409.685 474.197L410.182 474.423L437.12 470.112L432.372 480.536L404.786 484.952L394.528 480.279Z" fill="black"/>
<path d="M394.528 480.279L389.978 478.206L387.905 482.756L392.455 484.829L394.528 480.279ZM433.12 395.564L435.192 391.014L430.642 388.941L428.569 393.491L433.12 395.564ZM443.378 400.237L447.928 402.31L450.001 397.76L445.451 395.687L443.378 400.237ZM409.685 474.197L405.135 472.124L403.063 476.674L407.613 478.747L409.685 474.197ZM410.182 474.423L408.109 478.973L409.482 479.599L410.972 479.36L410.182 474.423ZM437.12 470.112L441.67 472.185L445.535 463.702L436.33 465.175L437.12 470.112ZM432.372 480.536L433.162 485.473L435.81 485.049L436.922 482.609L432.372 480.536ZM404.786 484.952L402.713 489.502L404.086 490.127L405.576 489.889L404.786 484.952ZM399.078 482.351L437.67 397.637L428.569 393.491L389.978 478.206L399.078 482.351ZM431.047 400.114L441.305 404.787L445.451 395.687L435.192 391.014L431.047 400.114ZM438.828 398.164L405.135 472.124L414.236 476.27L447.928 402.31L438.828 398.164ZM407.613 478.747L408.109 478.973L412.255 469.873L411.758 469.647L407.613 478.747ZM410.972 479.36L437.91 475.049L436.33 465.175L409.392 469.486L410.972 479.36ZM432.57 468.039L427.822 478.463L436.922 482.609L441.67 472.185L432.57 468.039ZM431.581 475.599L403.996 480.015L405.576 489.889L433.162 485.473L431.581 475.599ZM406.859 480.402L396.6 475.728L392.455 484.829L402.713 489.502L406.859 480.402Z" fill="black"/>
</g>
<path d="M349.061 444.061C349.646 443.475 349.646 442.525 349.061 441.939L339.515 432.393C338.929 431.808 337.979 431.808 337.393 432.393C336.808 432.979 336.808 433.929 337.393 434.515L345.879 443L337.393 451.485C336.808 452.071 336.808 453.021 337.393 453.607C337.979 454.192 338.929 454.192 339.515 453.607L349.061 444.061ZM178 444.5H348V441.5H178V444.5Z" fill="black"/>
<defs>
<filter id="filter0_df_0_1" x="364.528" y="369.564" width="130.029" height="159.036" filterUnits="userSpaceOnUse" color-interpolation-filters="sRGB">
<feFlood flood-opacity="0" result="BackgroundImageFix"/>
<feColorMatrix in="SourceAlpha" type="matrix" values="0 0 0 0 0 0 0 0 0 0 0 0 0 0 0 0 0 0 127 0" result="hardAlpha"/>
<feOffset dy="4"/>
<feGaussianBlur stdDeviation="15"/>
<feComposite in2="hardAlpha" operator="out"/>
<feColorMatrix type="matrix" values="0 0 0 0 0 0 0 0 0 0 0 0 0 0 0 0 0 0 0.25 0"/>
<feBlend mode="normal" in2="BackgroundImageFix" result="effect1_dropShadow_0_1"/>
<feBlend mode="normal" in="SourceGraphic" in2="effect1_dropShadow_0_1" result="shape"/>
<feGaussianBlur stdDeviation="7.5" result="effect2_foregroundBlur_0_1"/>
</filter>
</defs>
</svg>
